<?xml version="1.0" standalone="no"?>
<!DOCTYPE svg PUBLIC "-//W3C//DTD SVG 1.1//EN" "http://www.w3.org/Graphics/SVG/1.1/DTD/svg11.dtd" >
<svg xmlns="http://www.w3.org/2000/svg" xmlns:xlink="http://www.w3.org/1999/xlink" version="1.1">
<metadata>
Created by FontForge 20170731 at Thu Jun 28 22:41:02 2001
 By Aleksey,,,
(C)2001 Nate Piekos.  www.blambot.com
</metadata>
<defs>
<font id="AnimeAceBold" horiz-adv-x="454" >
  <font-face 
    font-family="Anime Ace"
    font-weight="700"
    font-stretch="normal"
    units-per-em="1024"
    panose-1="2 11 6 3 5 3 2 2 2 4"
    ascent="819"
    descent="-205"
    x-height="881"
    cap-height="916"
    bbox="-78 -198 1124 1041"
    underline-thickness="0"
    underline-position="0"
    unicode-range="U+0020-2122"
  />
<missing-glyph horiz-adv-x="512" 
d="M64 0v969h384v-969h-384zM128 64h256v841h-256v-841z" />
    <glyph glyph-name=".notdef" horiz-adv-x="512" 
d="M64 0v969h384v-969h-384zM128 64h256v841h-256v-841z" />
    <glyph glyph-name=".null" horiz-adv-x="0" 
 />
    <glyph glyph-name="nonmarkingreturn" 
 />
    <glyph glyph-name="space" unicode=" " 
 />
    <glyph glyph-name="exclam" unicode="!" horiz-adv-x="569" 
d="M145 284q-67 0 -67 38q0 22 25 68q8 16 145 309q57 123 61 131q38 75 77 122q34 41 118 41q35 0 65 -10q41 -14 41 -41q0 -12 -116 -168l-140 -188q-78 -111 -114 -202q-27 -67 -29 -70q-20 -30 -66 -30zM4 -22q-58 0 -58 41q0 42 47 152q16 38 95 38q75 0 75 -35
q0 -12 -34 -81q-32 -65 -44 -82q-24 -33 -81 -33z" />
    <glyph glyph-name="quotedbl" unicode="&#x22;" horiz-adv-x="416" 
d="M253 529q-53 0 -53 51q0 17 24 103q13 72 49 213q12 34 44.5 55t68.5 21q60 0 60 -49q0 -32 -42 -164q-38 -118 -60 -168q-27 -62 -91 -62zM36 509q-53 0 -53 48q0 22 9 53q9 25 17 51q9 31 22 108q13 69 26 106q11 34 43.5 55t69.5 21q60 0 60 -49q0 -33 -42 -165
q-39 -117 -61 -167q-26 -61 -91 -61z" />
    <glyph glyph-name="numbersign" unicode="#" horiz-adv-x="865" 
d="M771 892q50 0 50 -39q0 -24 -27 -93q-19 -48 -39 -95q22 6 31 6q30 0 49 -31q16 -26 16 -59q0 -54 -52 -72q-6 -2 -98 -15q-9 -34 -25 -91q36 9 45 9q28 0 46 -32q15 -27 15 -58q0 -53 -49 -70q-11 -4 -95 -16q-5 -49 -11 -98q-8 -59 -20 -97q-10 -29 -50 -48
q-35 -18 -69 -18q-53 0 -53 44q0 30 17 95q12 49 25 98q-80 -12 -193 -24q-9 -40 -32 -174q-8 -29 -45.5 -49t-69.5 -20q-59 0 -59 48q0 19 50 178q-19 -2 -27 -2q-35 0 -56.5 26t-21.5 61q0 57 54 69q7 2 99 4q15 50 32 101q-12 -1 -22 -1q-40 0 -67 22t-27 61q0 44 29 62
q22 14 66 15h72q24 77 75 229q29 77 127 77q49 0 49 -36q0 -29 -42 -128q-29 -67 -58 -135q92 7 163 22q15 62 30.5 122t43.5 115q7 17 53 28q38 9 71 9zM536 470q-67 -9 -178 -22q-17 -51 -34 -112q101 7 187 25z" />
    <glyph glyph-name="dollar" unicode="$" horiz-adv-x="959" 
d="M478 -5q-4 -49 -12 -67q-12 -28 -48 -49q-42 -23 -75 -23q-47 0 -47 48q0 15 5 33q-67 -13 -105 -13q-101 0 -150 93q-20 37 -20 63q0 31 32 75t60 44q15 0 37 -28q28 -37 56 -53q47 -28 126 -28q29 130 65 278q-72 4 -215 15q-77 9 -77 70q0 104 159 239
q131 113 258 164q19 67 22 75q15 37 46 63q42 34 102 34q48 0 48 -41q0 -21 -23 -81q54 7 71 7q68 0 68 -50q0 -10 -7.5 -74.5t-9.5 -71.5q-9 -29 -50 -57t-72 -28q-41 0 -41 89h-9h-13q-29 -90 -54 -177q67 -5 135 -11q83 -9 131 -28q31 -13 31 -56q0 -50 -28 -100
q-130 -236 -396 -354zM478 671q-42 -23 -89 -57q-65 -47 -70 -70q7 9 15 9q61 0 113 1q16 58 31 117zM680 314q0 18 -128 38q-25 -98 -51 -223q55 26 111 76q68 63 68 109z" />
    <glyph glyph-name="percent" unicode="%" horiz-adv-x="966" 
d="M707 564q71 -5 125 -72q50 -64 50 -138q0 -97 -91 -182q-78 -74 -202 -121q-115 -44 -208 -44q-106 0 -145 53q-66 -83 -68 -86q-46 -47 -93 -47q-83 0 -83 60v10q5 18 311 351q-66 -16 -125 -16q-68 0 -110 23q-54 30 -54 91q0 118 199 307q144 137 278 137
q64 0 113 -46q45 -42 63 -107q42 45 129 132q45 42 94 42q32 0 59 -16q32 -19 32 -49q0 -21 -20 -44q-15 -19 -43 -43q-45 -38 -46 -39q-74 -67 -165 -156zM514 639q0 88 -74 88q-58 0 -145 -62q-92 -65 -92 -120q0 -36 44 -56q34 -14 76 -14q80 0 133 42q58 45 58 122z
M718 307q0 40 -19 67q-21 31 -59 31q-55 0 -145 -64q-94 -66 -94 -116q0 -36 45 -56q35 -15 76 -15q79 0 133 37q63 42 63 116z" />
    <glyph glyph-name="ampersand" unicode="&#x26;" horiz-adv-x="930" 
d="M817 673q-13 0 -61.5 40.5t-92.5 40.5q-66 0 -131 -56t-65 -122q0 -28 56 -33q69 -6 89 -25q25 -25 25 -60q0 -77 -90 -91q-68 -7 -136 -15q-73 -13 -121 -59q-61 -58 -61 -116q0 -54 55 -85q46 -26 104 -26q98 0 254 73q20 68 29 154q3 37 5 74q5 49 12 70q10 27 51 47
q36 17 68 17q52 0 52 -40q0 -56 -52 -262q-44 -170 -76 -271q-11 -37 -48.5 -61t-77.5 -24q-50 0 -50 41q0 15 29 87q-121 -44 -228 -44q-118 0 -211 48q-116 59 -116 165q0 189 310 336q-42 41 -42 101q0 128 184 280q95 79 204 79t168 -90q31 -49 31 -84q0 -28 -19 -57
q-21 -32 -48 -32z" />
    <glyph glyph-name="quotesingle" unicode="'" horiz-adv-x="382" 
d="M113 561q-26 0 -46.5 14.5t-20.5 40.5q0 25 35 71q27 37 83 124q52 81 83.5 121.5t82.5 40.5q30 0 52 -15q26 -17 26 -46q0 -7 -1 -13q-5 -18 -105 -149q-94 -122 -124 -154q-32 -35 -65 -35z" />
    <glyph glyph-name="parenleft" unicode="(" horiz-adv-x="642" 
d="M-7 125q-37 73 -37 150q0 195 245 415q97 86 195 159q150 111 207 111q31 0 58 -20.5t27 -50.5q0 -25 -26 -49q-21 -21 -66 -44q-64 -33 -71 -37q-153 -94 -262 -202q-154 -151 -154 -275q0 -142 200 -212q40 -9 102 -34q25 -19 25 -49q0 -37 -29 -78t-64 -43
q-98 53 -196 105q-109 66 -154 154z" />
    <glyph glyph-name="parenright" unicode=")" horiz-adv-x="787" 
d="M564 853q182 -120 182 -299q0 -198 -247 -417q-98 -87 -195 -158q-149 -111 -206 -111q-31 0 -58 21t-27 51q0 24 25 47q22 20 66 43q63 33 71 38q155 96 262 201q153 152 153 275q0 76 -64 136q-53 49 -135 77q-26 7 -53 14q-35 10 -48 20q-25 18 -25 48q0 37 29.5 79
t64.5 44q72 -34 205 -109z" />
    <glyph glyph-name="asterisk" unicode="*" horiz-adv-x="420" 
d="M324 741q59 -44 59 -79q0 -25 -22 -54t-46 -29q-10 0 -73 64q-19 -73 -30 -91q-26 -44 -80 -44q-40 0 -40 31q0 15 17 61q-38 -25 -62 -25q-23 0 -43.5 17.5t-20.5 40.5q0 27 59 61q43 22 85 43q-45 24 -98 57q-7 10 -7 25q0 27 22.5 59t48.5 32q9 0 82 -52q0 24 7 70
q7 21 37 36q27 14 52 14q40 0 40 -36q0 -11 -18 -90q73 61 91 61q25 0 45.5 -19.5t20.5 -44.5q0 -6 -1 -10q-4 -16 -125 -98z" />
    <glyph glyph-name="plus" unicode="+" horiz-adv-x="787" 
d="M206 465q52 0 101 3l14 98q9 58 21 95.5t49 62t76 24.5q47 0 47 -36q0 -21 -25 -110q-31 -110 -33 -119q11 2 105 29q67 19 106 19q27 0 43 -29q13 -24 13 -54q0 -64 -46 -78t-120 -22l-124 -12v-4q0 -20 1.5 -58.5t1.5 -57.5q0 -40 -4 -54q-9 -30 -49.5 -52t-74.5 -22
q-48 0 -48 51q0 38 24 183q-151 -14 -160 -14q-33 0 -51 24t-18 57q0 29 14 52.5t40 25.5q53 -2 97 -2z" />
    <glyph glyph-name="comma" unicode="," horiz-adv-x="593" 
d="M181 -182q-26 0 -47 15t-21 40t34 70q27 36 83 124q52 80 84.5 121t82.5 41q30 0 53 -15q26 -18 26 -47q0 -7 -1 -12q-4 -18 -105 -148q-93 -119 -125 -154t-64 -35z" />
    <glyph glyph-name="hyphen" unicode="-" horiz-adv-x="838" 
d="M148 282q-33 0 -53 24.5t-20 57.5q0 57 45 72q21 6 92 6q126 0 232 18q25 4 133 35q99 29 113 29q28 0 44 -29q14 -24 14 -54q0 -57 -40 -75t-273 -51q-226 -33 -287 -33z" />
    <glyph glyph-name="hyphen" unicode="&#x2010;" horiz-adv-x="838" 
d="M148 282q-33 0 -53 24.5t-20 57.5q0 57 45 72q21 6 92 6q126 0 232 18q25 4 133 35q99 29 113 29q28 0 44 -29q14 -24 14 -54q0 -57 -40 -75t-273 -51q-226 -33 -287 -33z" />
    <glyph glyph-name="period" unicode="." 
d="M179 -15q-57 0 -57 43q0 40 49 158q17 41 95 41q74 0 74 -38q0 -14 -34 -84q-32 -65 -45 -84q-24 -36 -82 -36z" />
    <glyph glyph-name="slash" unicode="/" horiz-adv-x="851" 
d="M14 -64q-32 0 -58 13q-34 16 -34 44t55 88q39 40 78 81q307 337 544 585q41 46 129 133q43 37 99 37q34 0 57 -14q28 -17 28 -48q0 -9 -1 -15q-6 -19 -82 -90q-50 -45 -100 -89q-308 -285 -536 -558q-34 -45 -108 -132q-34 -35 -71 -35z" />
    <glyph glyph-name="zero" unicode="0" horiz-adv-x="1162" 
d="M403 -68q-156 0 -258 87q-109 92 -109 245q0 168 113 326q105 147 273.5 240.5t333.5 93.5q155 0 258 -87q109 -93 109 -246q0 -167 -113 -325q-105 -148 -273.5 -241t-333.5 -93zM911 526q0 109 -65.5 178t-173.5 69q-167 0 -302 -145t-135 -313q0 -109 66 -177.5
t174 -68.5q167 0 303 146q133 143 133 311z" />
    <glyph glyph-name="one" unicode="1" horiz-adv-x="349" 
d="M61 -34q-42 0 -42 41q0 65 24 159q21 78 43 156q49 202 81 327q-56 -24 -69 -24q-26 0 -41 28q-14 23 -14 51q0 11 3 19q11 37 64 62q38 19 108 45q83 31 106 31q50 0 50 -38q0 -16 -24 -80q-114 -308 -148 -603l-8 -94q-10 -44 -64 -65q-36 -15 -69 -15z" />
    <glyph glyph-name="two" unicode="2" horiz-adv-x="929" 
d="M668 53q-29 0 -75 37q-235 -190 -376 -190q-99 0 -158 72q-54 66 -54 167q0 119 70 200q74 86 191 86q145 0 326 -132q165 176 165 314q0 142 -159 142q-80 0 -167 -42q-30 -14 -134 -77q-68 -42 -101 -42q-47 0 -47 38q0 40 89 124q192 183 382 183q133 0 216 -87
t83 -220q0 -217 -214 -435q55 -56 55 -83q0 -23 -36 -40q-31 -15 -56 -15zM468 184q0 3 -103 56q-63 32 -104 32q-79 0 -110 -117q-8 -27 -8 -42q0 -39 60 -39q103 0 226 78q39 25 39 32z" />
    <glyph glyph-name="three" unicode="3" horiz-adv-x="936" 
d="M256 -83q-44 0 -100 10q-66 13 -91 32t-25 56q0 32 18 61q21 33 52 33q12 0 43 -14q76 -34 164 -34q106 0 218 65q128 74 128 172q0 74 -93 74q-24 0 -74 -9t-75 -9q-65 0 -65 44q0 52 65 104q26 22 79 37q58 17 76 29q37 23 50 72q3 13 3 25q0 37 -25.5 58t-62.5 21
q-43 0 -95 -33q-9 -6 -83 -61q-44 -32 -66 -32q-34 0 -34 39q0 58 87 141q57 55 129 93q82 43 150 43q77 0 134 -68q53 -65 53 -144q0 -114 -124 -211q171 -62 171 -179q0 -115 -111 -217q-96 -88 -246 -145q-140 -53 -250 -53z" />
    <glyph glyph-name="four" unicode="4" horiz-adv-x="959" 
d="M727 438q37 2 51 2q35 0 70 -22q38 -25 38 -59q0 -44 -78 -61q-27 -6 -115 -13q-5 -25 -12 -125q-6 -78 -21 -123q-10 -28 -50 -48q-36 -18 -70 -18q-52 0 -52 47q0 51 19 125q17 61 34 123q-111 -18 -196 -39q-7 -2 -121 -37q-89 -27 -111 -27q-61 0 -61 68q0 15 16 56
q9 25 17 64q7 32 13 64q28 117 64 256q15 60 22 76q17 40 47 62q36 26 81 26q47 0 47 -39q0 -29 -33 -120q-22 -63 -45 -127q-26 -86 -49 -185q182 50 349 66q40 170 75 305q13 47 19 61q14 30 42 48q35 23 75 23q50 0 50 -39q0 -18 -21 -75q-54 -142 -94 -315z" />
    <glyph glyph-name="five" unicode="5" horiz-adv-x="761" 
d="M344 706l-8 -164q324 -21 324 -247q0 -125 -117 -229q-151 -135 -344 -135q-93 0 -159 21q-99 31 -99 102q0 27 13 49q16 26 40 26q11 0 45 -13q85 -35 176 -35q94 0 180 53q98 61 98 149q0 51 -41 81q-36 28 -89 28q-24 0 -72.5 -10t-73.5 -10q-71 0 -71 99q0 2 3 251
q1 44 16 69.5t54 42.5q188 83 467 83q64 0 99 -30q31 -26 31 -54q0 -18 -14 -35q-18 -20 -85 -27q-131 -15 -188 -23q-105 -17 -185 -42z" />
    <glyph glyph-name="six" unicode="6" horiz-adv-x="975" 
d="M310 -50q-129 0 -201 89q-66 82 -66 215q0 155 86 297q79 132 215 226q166 116 390 116q72 0 83 -48l8 -108q1 -6 8 -31q6 -19 6 -31q0 -34 -39.5 -63.5t-74.5 -29.5q-34 0 -50 44q-5 14 -16 72q-192 -33 -313 -141q-106 -95 -143 -193q342 110 525 110q176 0 176 -105
q0 -107 -152 -231q-121 -98 -249 -148q-105 -40 -193 -40zM734 291q0 20 -68 20q-110 0 -465 -114q36 -71 145 -71q57 0 128 20q58 16 146 57q114 55 114 88z" />
    <glyph glyph-name="seven" unicode="7" horiz-adv-x="704" 
d="M779 751q0 -14 -22 -40q-159 -195 -228 -288q-118 -157 -203 -307q-17 -38 -60 -109q-27 -36 -83 -36q-31 0 -52 13q-25 16 -25 44q0 36 459 671q-43 1 -83 1q-166 0 -318 -25q-2 -1 -48 -11q-29 -6 -49 -6q-60 0 -60 64q0 77 84 108q96 35 365 35q189 0 250 -24
q38 -16 60 -54q13 -22 13 -36z" />
    <glyph glyph-name="eight" unicode="8" horiz-adv-x="1026" 
d="M280 -114q-230 0 -230 132q0 89 102 212q74 90 176 170q-76 31 -76 111q0 110 198 295q60 56 128 93q81 44 149 44q77 0 134 -68q55 -64 55 -143q0 -117 -125 -215q64 -32 104.5 -97t40.5 -135q0 -122 -123 -221q-103 -82 -269 -133q-146 -45 -264 -45zM751 686
q0 39 -16 65q-19 31 -55 31q-59 0 -148 -65q-93 -69 -93 -124q0 -34 43 -51q32 -13 73 -13q78 0 133 39q63 43 63 118zM608 371q-124 0 -272 -120q-82 -67 -82 -112q0 -47 77 -72q55 -18 116 -18q102 0 182 42q100 51 100 144q0 136 -121 136z" />
    <glyph glyph-name="nine" unicode="9" horiz-adv-x="927" 
d="M612 -70q-51 0 -51 42q0 4 17 70q19 97 63 292q-192 -92 -391 -92q-221 0 -221 145q0 137 255 354q79 67 173 111q108 50 198 50q95 0 159 -59q99 -91 99 -197q0 -45 -28 -113q-89 -211 -121 -397q-5 -33 -10 -67q-7 -40 -16 -66q-12 -30 -51.5 -51.5t-74.5 -21.5z
M584 730q-124 0 -272 -121q-82 -67 -82 -111q0 -48 78 -73q56 -18 117 -18q103 0 182 42q99 52 99 145q0 136 -122 136z" />
    <glyph glyph-name="colon" unicode=":" horiz-adv-x="413" 
d="M231 320q-58 0 -58 42q0 18 20 79q17 50 30 80q17 41 93 41t76 -37q0 -13 -35 -85q-32 -68 -44 -85q-25 -35 -82 -35zM106 -31q-57 0 -57 43t49 158q17 41 95 41q74 0 74 -38q0 -14 -34 -84q-32 -65 -45 -84q-25 -36 -82 -36z" />
    <glyph glyph-name="semicolon" unicode=";" horiz-adv-x="512" 
d="M312 328q-57 0 -57 42t49 159q17 41 94 41q76 0 76 -37q0 -13 -35 -85q-33 -68 -45 -85q-24 -35 -82 -35zM106 -198q-26 0 -47 14.5t-21 40.5q0 24 35 70q29 39 82.5 122t84.5 123.5t83 40.5q30 0 52 -15q26 -17 26 -46q0 -8 -1 -13q-5 -19 -105 -149q-93 -120 -125 -154
t-64 -34z" />
    <glyph glyph-name="less" unicode="&#x3c;" horiz-adv-x="813" 
d="M166 400q63 -51 357 -297q30 -25 61 -50q36 -36 36 -66t-30.5 -73t-59.5 -43q-19 0 -63 46q-28 31 -56 63q-74 80 -170 159q-106 87 -190 134q-32 16 -65 33q-40 25 -40 55q0 34 30 77t62 47q112 79 574 385q40 28 122 80q32 18 54 18q31 0 57 -23t26 -53q0 -24 -25 -47
q-22 -19 -63 -40q-34 -16 -67 -33q-306 -172 -550 -372z" />
    <glyph glyph-name="equal" unicode="=" horiz-adv-x="862" 
d="M163 428q-33 0 -53 24t-20 58q0 57 48 72q21 7 94 7q177 0 358 52q106 31 115 31q28 0 45 -29q14 -25 14 -55q0 -56 -40.5 -74t-274.5 -53q-226 -33 -286 -33zM159 192q-32 0 -52.5 25t-20.5 59q0 61 54 73q19 5 48 5h49q137 5 218 18q25 4 133 35q101 29 114 29
q27 0 44 -30q15 -26 15 -56q0 -54 -42 -72t-273 -52q-225 -34 -287 -34z" />
    <glyph glyph-name="greater" unicode="&#x3e;" horiz-adv-x="947" 
d="M57 -129q-46 0 -46 78q0 52 53 91q6 4 111 65q173 102 523 300q-144 206 -348 369q-34 22 -92 73q-11 13 -11 27q0 36 43 64q38 26 75 26t74 -34l58 -62q141 -144 184 -189q103 -107 179 -194q44 -7 44 -84q0 -54 -42 -79q-34 -15 -99 -44q-277 -126 -617 -358
q-70 -49 -89 -49z" />
    <glyph glyph-name="question" unicode="?" horiz-adv-x="843" 
d="M233 381q-28 -53 -37 -63q-21 -21 -70 -21q-62 0 -62 39q0 44 48 151q11 24 23.5 32.5t39.5 8.5h49q33 -1 50 -1q222 0 314 66q88 63 88 123q0 55 -76 93q-63 32 -125 32q-64 0 -145 -34q-45 -18 -124 -62q-61 -34 -74 -34q-29 0 -29 33q0 109 190 187q157 64 285 64
q117 0 211 -58q109 -68 109 -178q0 -186 -253 -289q-175 -72 -412 -89zM-1 -6q-59 0 -59 35q0 9 5 23q11 35 23 70t32 49q24 17 73 17q75 0 75 -34q0 -8 -31 -66.5t-42 -69.5q-25 -24 -76 -24z" />
    <glyph glyph-name="at" unicode="@" horiz-adv-x="1137" 
d="M1106 611q0 -159 -122 -332q-115 -162 -288 -270q-179 -112 -337 -112q-143 0 -237 87.5t-94 230.5q0 158 122 332q114 163 287 272q179 113 337 113q143 0 237.5 -89t94.5 -232zM907 544q0 97 -49 162q-54 70 -149 70q-84 0 -186 -52q-137 -70 -219 -185
q-90 -125 -90 -270q0 -97 48 -161q54 -70 148 -70q83 0 186 52q136 69 220 184q91 125 91 270zM818 585q0 -37 -10 -88q-9 -44 -18 -87q-18 -90 -46 -141q-34 -63 -101 -107q-93 -61 -212 -61q-62 0 -104 23q-51 28 -51 86q0 87 125 214q104 106 232 106q29 0 60 -5
q2 32 -41 32q-31 0 -90.5 -12t-89.5 -12q-26 0 -42 20t-16 46q0 11 3 19q10 32 61 46q105 30 212 30q69 0 96 -20q32 -23 32 -89zM600 401q-34 0 -110 -45q-80 -48 -80 -78q0 -20 27 -33q22 -10 44 -10q48 0 100 31q58 36 58 80q0 19 -10.5 37t-28.5 18z" />
    <glyph glyph-name="A" unicode="A" horiz-adv-x="1005" 
d="M788 -29q-37 0 -53 55q-6 20 -14 86q-210 -47 -513 -100q-63 -92 -101 -92q-36 0 -58 35q-20 31 -20 68q0 35 42 83q33 37 67 73q111 129 239 323q108 170 216 339q43 66 115 66q41 0 54 -38q2 -9 8 -72q34 -367 111 -601l22 -62q14 -40 14 -62q0 -37 -45.5 -69
t-83.5 -32zM694 284q-19 130 -58 364q-66 -95 -299 -450q190 32 357 86z" />
    <glyph glyph-name="B" unicode="B" horiz-adv-x="901" 
d="M663 385q60 -26 98 -69q44 -50 44 -108q0 -146 -257 -225q-131 -40 -331 -40q-123 0 -152 9q-42 13 -42 46q0 30 27 157q25 114 77 323q-36 9 -36 62q0 48 31 89q15 21 68 69q107 97 196 144q114 59 235 59q111 0 181 -47q81 -55 81 -161q0 -183 -220 -308zM568 729
q-110 0 -257 -116q-29 -97 -56 -207q282 10 388 94q89 69 89 128q0 49 -60 78q-49 23 -104 23zM659 185q0 39 -102 66q-80 21 -136 21q-108 0 -209 -60q-8 -53 -15 -101q106 -7 185 -7q166 0 223 30q54 28 54 51z" />
    <glyph glyph-name="C" unicode="C" horiz-adv-x="886" 
d="M891 705q0 -51 -62 -87q-48 -28 -75 -28q-41 0 -41 76q0 9 2 41q-241 -40 -399 -179q-181 -158 -181 -283q0 -64 54 -95q43 -25 112 -25q74 0 190 44q59 23 185 84q94 44 114 44q33 0 33 -39q0 -49 -39 -82q-8 -7 -81 -50q-301 -178 -500 -178q-106 0 -164 58t-58 163
q0 56 15 111q72 261 319 443q244 179 517 179q74 0 74 -42q0 -9 -11 -63q-4 -18 -4 -92z" />
    <glyph glyph-name="D" unicode="D" horiz-adv-x="984" 
d="M53 -56q-40 0 -40 39q0 22 36 177q30 133 87 365q-7 16 -7 35q0 46 37 88q42 49 137 109q84 54 155 85q127 54 237 54q129 0 215 -81t86 -209q0 -246 -261 -427q-209 -145 -489 -197q-41 -7 -122 -22q-66 -16 -71 -16zM306 605q-81 -249 -109 -479q172 18 306 72
q169 68 247 184q52 75 52 153q0 86 -57.5 137.5t-144.5 51.5q-135 0 -294 -119z" />
    <glyph glyph-name="E" unicode="E" horiz-adv-x="920" 
d="M211 347q-27 -120 -41 -233q100 1 231 26l228 50q27 6 40 6q52 0 52 -38q0 -31 -30.5 -69.5t-61.5 -53.5q-104 -53 -265 -81q-140 -25 -278 -25q-95 0 -95 58q0 27 20 124q16 75 50 215q-28 18 -28 52q0 30 19 60.5t46 42.5q20 85 62 246q10 39 17 52q12 23 38 39
q15 9 65 24q147 42 172 48q84 19 180 19q63 0 93.5 -8.5t52.5 -38t22 -60.5q0 -64 -96 -75q-103 -11 -206 -23q-90 -14 -205 -58q-19 -57 -37 -119q254 66 477 66q38 0 55 -4q25 -6 49 -25q32 -26 32 -54q0 -8 -2 -13q-13 -41 -98 -50q-364 -42 -558 -100z" />
    <glyph glyph-name="F" unicode="F" horiz-adv-x="846" 
d="M213 346q-8 -34 -21 -172q-12 -114 -31 -162q-11 -29 -48.5 -48.5t-71.5 -19.5q-52 0 -52 44q0 19 22 117q16 74 51 216q-27 17 -27 53q0 31 19 63.5t46 42.5q18 74 49 197q5 27 20 79q14 37 45 56q19 12 67 26q147 42 173 48q83 19 179 19q64 0 94.5 -8.5t52.5 -37.5
t22 -60q0 -65 -97 -76l-207 -23q-91 -15 -205 -57q-18 -59 -34 -116q230 62 432 62q66 0 99 -30q29 -25 29 -53q0 -19 -14 -35q-18 -21 -80 -28q-326 -39 -512 -97z" />
    <glyph glyph-name="G" unicode="G" horiz-adv-x="1068" 
d="M258 -59q-110 0 -170 57.5t-60 165.5q0 59 17 119q72 258 319 437q242 177 513 177q74 0 74 -43q0 -10 -9 -57q-5 -23 -5 -88q0 -35 -14 -55.5t-48 -40.5q-46 -27 -73 -27q-32 0 -40 46q-3 19 -2 71q-301 -50 -491 -273q-91 -108 -91 -190q0 -61 47 -91q40 -26 104 -26
q69 0 164 27q61 18 127 46q53 22 117 57q94 52 94 75q0 18 -36 18q-159 0 -446 -62q-33 -7 -46 -7q-42 0 -42 38q0 37 43 81q38 38 77 55q51 22 180 37q107 12 186 12q262 0 262 -106q0 -96 -210 -236q-326 -217 -541 -217z" />
    <glyph glyph-name="H" unicode="H" horiz-adv-x="919" 
d="M810 573q61 -29 61 -74q0 -32 -36 -49q-28 -13 -65 -14q-47 -177 -60 -275q-5 -46 -10 -91q-12 -46 -57 -68q-33 -17 -68 -17q-52 0 -52 43q0 40 16 99q14 49 27 98q15 64 44 193q-212 -30 -390 -90q-32 -148 -41 -267q-4 -48 -13 -65q-12 -25 -49.5 -41.5t-67.5 -16.5
q-50 0 -50 46q0 16 10 57q22 95 70 344q41 218 74 342q12 47 22 63q14 26 50 45t78 19q54 0 54 -42q0 -20 -16 -65q-42 -115 -75 -237q196 56 382 68q17 74 58 220q35 104 151 104q52 0 52 -39q0 -6 -2 -14q-44 -103 -97 -276z" />
    <glyph glyph-name="I" unicode="I" horiz-adv-x="714" 
d="M759 811q0 -31 -17 -50q-19 -23 -80 -27t-183 -14q-109 -317 -142 -593q48 13 97 26q58 15 98 15q44 0 44 -30q0 -27 -28.5 -62.5t-55.5 -49.5q-78 -40 -213 -65q-122 -23 -223 -23q-51 0 -73 7q-38 14 -38 54q0 16 5 35q19 69 98 69q11 0 34 -1.5t35 -1.5q32 0 58 2
q40 197 136 572q-104 -41 -126 -41q-54 0 -54 71q0 42 21 79t56 55q155 78 365 78q80 0 120 -15q66 -24 66 -90z" />
    <glyph glyph-name="J" unicode="J" horiz-adv-x="939" 
d="M962 810q0 -107 -64 -286q-56 -154 -123 -271q-76 -130 -198 -211q-130 -86 -273 -86q-142 0 -227 98q-81 93 -81 236q0 69 18 127q23 73 100 73q49 0 49 -69q0 -16 -2 -46.5t-2 -45.5q0 -94 54.5 -149.5t148.5 -55.5q85 0 167.5 50.5t121.5 126.5q34 67 67.5 196.5
t33.5 200.5q0 32 0 26q-1 14 -14 14q-41 0 -119.5 -17.5t-119.5 -17.5q-35 0 -35 38q0 39 30 77.5t67 52.5q81 32 260 32q72 0 98 -12q43 -19 43 -81z" />
    <glyph glyph-name="K" unicode="K" horiz-adv-x="824" 
d="M274 327q146 -136 305 -212q25 -12 51 -23q33 -19 33 -40q0 -29 -59 -55q-51 -23 -86 -23q-28 0 -226 77q-100 39 -165 95q-9 -83 -13 -95q-14 -50 -57 -72q-32 -16 -68 -16q-51 0 -51 45q0 16 11 61q52 226 163 677q13 51 23 67q15 29 52 48t81 19q54 0 54 -40
q0 -23 -21 -76q-16 -39 -32 -77q-37 -100 -73 -229q328 245 508 363q53 35 103 35q76 0 76 -44q0 -10 -2 -15q-9 -23 -69 -66q-29 -20 -288 -214q-160 -120 -250 -190z" />
    <glyph glyph-name="L" unicode="L" horiz-adv-x="774" 
d="M111 -42q-97 0 -97 57q0 54 77 385q76 325 101 389q35 84 123 84q52 0 52 -39q0 -19 -20 -72q-121 -323 -154 -618q96 1 195 18q50 8 132 27q99 24 131 31q25 5 41 5q52 0 52 -39q0 -33 -31 -71q-27 -33 -60 -50q-93 -50 -264 -80q-149 -27 -278 -27z" />
    <glyph glyph-name="M" unicode="M" horiz-adv-x="1200" 
d="M953 -41q-22 0 -36 23q-9 15 -15 259q-3 146 -6 293q-88 -155 -162 -293q-42 -79 -84 -157q-65 -120 -87 -141q-28 -26 -49 -26q-29 0 -47 37q-14 30 -14 64q0 26 9 47q-4 79 -18 434q-66 -115 -272 -464q-39 -65 -43 -71q-33 -47 -60 -47q-32 0 -50 38q-15 31 -15 66
q0 32 30 77q26 35 52 69q89 127 190 311q86 161 172 323q36 67 91 67q44 0 44 -85q0 -18 -2 -55t-2 -55q0 -162 25 -390q118 193 227 405q28 60 88 179q35 67 89 67q46 0 46 -99q0 -25 -7 -95v1q-2 -148 -2 -203q0 -203 18 -338q5 -30 10 -59q6 -36 6 -60q0 -37 -44.5 -79.5
t-81.5 -42.5z" />
    <glyph glyph-name="N" unicode="N" horiz-adv-x="909" 
d="M589 -30q-52 0 -52 29q0 4 2 8l-316 512q-85 -265 -108 -443q-5 -43 -10 -87q-11 -39 -59 -59q-34 -15 -64 -15q-50 0 -50 46q0 15 11 57q7 31 15 61q83 373 145 608q18 67 33 89q24 36 80 50q25 6 46 6q39 0 52 -23l306 -517q3 7 80 253l40 152q28 101 64 152
q49 69 122 69q48 0 48 -37q0 -21 -31 -91q-170 -380 -220 -700q-8 -53 -16 -68q-13 -27 -53 -42q-28 -10 -65 -10z" />
    <glyph glyph-name="O" unicode="O" horiz-adv-x="1162" 
d="M403 -68q-156 0 -258 87q-109 92 -109 245q0 168 113 326q105 147 273.5 240.5t333.5 93.5q155 0 258 -87q109 -93 109 -246q0 -167 -113 -325q-105 -148 -273.5 -241t-333.5 -93zM911 526q0 109 -65.5 178t-173.5 69q-167 0 -302 -145t-135 -313q0 -109 66 -177.5
t174 -68.5q167 0 303 146q133 143 133 311z" />
    <glyph glyph-name="P" unicode="P" horiz-adv-x="843" 
d="M148 182l-6 -88q-5 -55 -17 -87t-51 -52q-35 -17 -74 -17q-48 0 -48 39q0 24 33 169q32 137 92 372q-6 16 -6 34q0 44 33 87q38 48 122 110q78 57 140 88q134 66 243 66q110 0 185 -60q82 -65 82 -172q0 -213 -270 -352q-194 -100 -458 -137zM512 727q-113 0 -263 -117
q-41 -132 -72 -270q299 13 413 108q99 82 99 155q0 58 -62 94q-53 30 -115 30z" />
    <glyph glyph-name="Q" unicode="Q" horiz-adv-x="1165" 
d="M874 120q71 -31 71 -65q0 -26 -32 -46q-28 -19 -55 -19q-26 0 -113 40q-168 -97 -341 -97q-157 0 -258 84q-108 90 -108 244q0 168 111 326q105 149 272 243t333 94q156 0 259 -86q111 -91 111 -245q0 -132 -74 -262q-65 -116 -176 -211zM679 775q-169 0 -306 -145
t-137 -314q0 -110 65.5 -178.5t173.5 -68.5q67 0 136 30q-194 118 -194 244q0 38 27 86q30 54 64 54q17 0 36 -24l102 -136q60 -79 116 -124q67 64 107 146q44 89 44 175q0 109 -62 180q-65 75 -172 75z" />
    <glyph glyph-name="R" unicode="R" horiz-adv-x="855" 
d="M328 218q87 -53 159 -79q27 -6 78 -23q31 -15 31 -37q0 -28 -31 -51.5t-60 -23.5q-69 0 -182 36q-101 32 -173 70q0 -35 -11 -103q-10 -30 -45.5 -49t-69.5 -19q-57 0 -57 47q0 26 32 166q23 101 85 349q-35 22 -35 71q0 43 53 92q253 237 486 237q114 0 194 -61
q87 -66 87 -176q0 -173 -191 -301q-143 -95 -350 -145zM524 731q-112 0 -262 -117q-41 -131 -71 -269q292 11 405 106q100 83 100 158q0 58 -60 93q-51 29 -112 29z" />
    <glyph glyph-name="S" unicode="S" horiz-adv-x="1026" 
d="M943 518q34 -14 34 -59q0 -50 -27 -97q-102 -178 -313.5 -300t-416.5 -122q-79 0 -116 27q-41 30 -65 87q-22 52 -22 107q0 42 13 76q18 46 53 46q37 0 57 -46q28 -66 52 -87q52 -47 168 -47q105 0 198 42q101 45 156 127q25 37 25 55q0 7 -14 14q-65 29 -256 41l-274 14
q-86 8 -86 73q0 89 151 219q275 237 586 237q74 0 74 -49q0 -18 -5 -75q-6 -60 -9 -71q-9 -29 -53.5 -56.5t-75.5 -27.5q-45 0 -46 53l-1 35l-15 1q-105 1 -206 -45q-97 -45 -170 -125q5 1 80 2h19q72 0 256 -15q209 -18 249 -34z" />
    <glyph glyph-name="T" unicode="T" horiz-adv-x="838" 
d="M765 799q0 -25 -18 -45q-21 -22 -91 -26q-133 -7 -211 -13q-110 -326 -142 -599q-4 -44 -8 -89q-11 -40 -59 -62q-36 -16 -67 -16q-49 0 -49 41q0 24 41 198q56 241 120 493q-163 -54 -187 -54q-31 0 -49 24q-16 21 -16 54q0 89 84 127q174 78 446 78q206 0 206 -111z
" />
    <glyph glyph-name="U" unicode="U" horiz-adv-x="885" 
d="M566 -36q-51 0 -51 42q0 12 24 111q-91 -42 -253 -94q-185 -59 -256 -59q-66 0 -66 47q0 16 9 52q43 199 138 593q11 49 42 143q37 82 137 82q57 0 57 -40q0 -19 -22 -73q-62 -152 -111 -335q-64 -237 -61 -271v-5l1 2q49 1 212 61q126 46 216 87q50 231 81 347
q10 37 19 73q12 43 25 72q17 37 55 59.5t80 22.5q59 0 59 -43q0 -23 -23 -80q-17 -41 -34 -81q-104 -281 -137 -525q-6 -50 -12 -99q-13 -51 -61 -74q-31 -15 -68 -15z" />
    <glyph glyph-name="V" unicode="V" horiz-adv-x="644" 
d="M125 -42q-38 0 -57 7q-26 11 -36 42q-5 17 -12 157q-15 316 -15 566q0 86 12 112q22 45 100 45q52 0 52 -73q0 -19 -4 -49q-5 -39 -6 -49q-7 -87 -7 -197q0 -146 16 -285q49 79 148 238l94 154q56 91 102 150q42 55 108 55q26 0 45 -10q25 -13 25 -36q0 -18 -44 -77
q-31 -38 -61 -76q-173 -235 -302 -512q-16 -42 -54 -120q-28 -42 -104 -42z" />
    <glyph glyph-name="W" unicode="W" horiz-adv-x="992" 
d="M536 -32q-33 0 -40.5 48t-7 147t-6.5 147q-9 59 -26 176q-178 -285 -301 -517q-35 -66 -90 -66q-29 0 -38 30q-4 15 -4 54q0 19 1.5 55.5t2.5 51.5q2 107 2 194q0 219 -19 356q-1 6 -10 52q-6 31 -6 51q0 43 43.5 87t85.5 44q21 0 34 -23.5t15 -134.5q-2 86 -2 -146
q0 -110 7 -273q67 117 244 390q76 117 132 117q44 0 44 -86q0 -38 17 -199q9 -92 15 -188q70 121 285 484q33 56 37 61q28 39 53 39q33 0 52 -37q15 -30 15 -67q0 -32 -41 -90q-103 -144 -214 -338q-56 -99 -190 -352q-36 -67 -90 -67z" />
    <glyph glyph-name="X" unicode="X" horiz-adv-x="789" 
d="M460 411q32 -61 47 -87q28 -48 54 -83q23 -27 61 -83q5 -11 5 -24q0 -38 -38 -86t-75 -48q-31 0 -71 82q-33 65 -99 196q-101 -119 -163 -204q-23 -35 -73 -101q-28 -31 -75 -31q-32 0 -57 16.5t-25 46.5q0 8 1 12q5 20 324 399q-47 92 -95 183q-68 138 -68 179
q0 42 32.5 87.5t72.5 45.5q23 0 38 -24q11 -18 22 -52q16 -53 16 -54q45 -123 96 -230q67 81 135 161q80 94 142 155q38 37 85 37q32 0 62.5 -19t30.5 -50q0 -20 -17 -43q-1 -1 -69 -67q-139 -136 -299 -314z" />
    <glyph glyph-name="Y" unicode="Y" horiz-adv-x="801" 
d="M52 -57q-35 0 -59 15q-28 18 -28 50v11q3 10 240 300l-92 188q-27 52 -53 105q-31 61 -47 106q-8 22 -8 39q0 35 37 83t71 48q20 0 37 -27q2 -5 28 -80q57 -164 140 -328q23 27 249 289q36 44 112 127q39 38 87 38q34 0 61 -19q31 -20 31 -53q0 -9 -1 -14q-7 -21 -76 -88
q-355 -346 -566 -632l-68 -98q-48 -60 -95 -60z" />
    <glyph glyph-name="Z" unicode="Z" horiz-adv-x="942" 
d="M232 118q38 -2 78 -2q99 0 405 28q25 3 38 3q65 0 65 -42q0 -32 -36 -63q-30 -26 -66 -38q-162 -51 -473 -51q-130 0 -187 14q-72 17 -72 81q0 30 28 64q18 22 50 51q26 23 52 47q176 168 531 499h-12q-151 0 -323 -36q-16 -3 -27 -3q-32 0 -51 19.5t-19 51.5
q0 79 86 110q126 45 314 45q112 0 190 -16q134 -28 134 -97q0 -38 -43 -79q-24 -24 -65 -54q-62 -46 -68 -51q-287 -227 -529 -481z" />
    <glyph glyph-name="bracketleft" unicode="[" horiz-adv-x="688" 
d="M737 989q0 -34 -27 -77q-30 -47 -62 -47q-30 0 -92.5 16.5t-99.5 16.5q-35 0 -100 -8q-87 -247 -140 -448q-22 -81 -51 -239q-31 -164 -50 -240q37 -4 67 -4q62 0 145 18q59 12 77 12q45 0 45 -67q0 -75 -47 -95q-31 -13 -236 -13q-30 0 -91 1h-91q-55 0 -55 72
q0 17 17 67q0 3 19 88q105 468 201 819q27 94 54 133q32 46 80 46h87q58 1 87 1q217 0 240 -12.5t23 -39.5z" />
    <glyph glyph-name="backslash" unicode="\" horiz-adv-x="690" 
d="M663 9q0 -35 -44 -56q-35 -17 -74 -17q-45 0 -67 62q-13 50 -26 99q-84 280 -240 568q-26 44 -51 89q-35 64 -35 89q0 32 45 56q39 20 74 20q42 0 64 -24q15 -15 34 -60q98 -225 268 -679q16 -37 31 -75q21 -54 21 -72z" />
    <glyph glyph-name="bracketright" unicode="]" horiz-adv-x="713" 
d="M764 967q0 -40 -18 -109q-63 -245 -177 -619l-63 -206q-10 -29 -27 -88q-1 -13 -6 -37q-10 -33 -34 -61q-28 -32 -58 -32h-86q-57 -1 -85 -1q-222 0 -243.5 12.5t-21.5 39.5q0 34 28 78.5t60 44.5q29 0 91.5 -15.5t101.5 -15.5q33 0 91 6q22 80 77.5 239t78.5 242
q54 199 101 446q-52 6 -85 6q-50 0 -134 -19q-61 -13 -78 -13q-44 0 -44 66q0 76 46 97q30 13 239 13q30 0 90 -1h91q65 0 65 -73z" />
    <glyph glyph-name="underscore" unicode="_" horiz-adv-x="1148" 
d="M493 -147q-185 0 -269 8q-87 8 -87 77q0 87 73 87q43 0 190 -15q112 -11 210 -11q65 0 208 17q87 10 97 10q33 0 52 -24.5t19 -57.5q0 -68 -60 -82q-8 -2 -83 -4q-126 -5 -350 -5z" />
    <glyph glyph-name="a" unicode="a" horiz-adv-x="991" 
d="M774 -41q-37 0 -53 55q-6 20 -14 86q-210 -47 -513 -100q-63 -92 -101 -92q-36 0 -58 35q-20 31 -20 68q0 35 42 83q33 37 67 73q111 129 239 323q108 170 216 339q43 66 115 66q41 0 54 -38q2 -9 8 -72q34 -367 111 -601l22 -62q14 -40 14 -62q0 -37 -45.5 -69
t-83.5 -32zM680 272q-19 130 -58 364q-66 -95 -299 -450q190 32 357 86z" />
    <glyph glyph-name="b" unicode="b" horiz-adv-x="908" 
d="M662 385q59 -26 97 -69q44 -50 44 -108q0 -146 -257 -225q-131 -41 -337 -41q-90 0 -110 3q-78 10 -78 53q0 30 28 157q25 115 77 323q-36 9 -36 62q0 48 30 89q16 21 68 69q107 97 197 144q113 59 235 59q111 0 181 -47q81 -55 81 -161q0 -183 -220 -308zM566 729
q-110 0 -256 -116q-30 -97 -57 -207q282 10 389 94q89 69 89 128q0 49 -61 78q-49 23 -104 23zM657 185q0 39 -102 66q-80 21 -136 21q-108 0 -208 -60q-9 -53 -15 -101q105 -7 185 -7q165 0 222 30q54 28 54 51z" />
    <glyph glyph-name="c" unicode="c" horiz-adv-x="886" 
d="M891 705q0 -51 -62 -87q-48 -28 -75 -28q-41 0 -41 76q0 9 2 41q-241 -40 -399 -179q-181 -158 -181 -283q0 -64 53 -95q44 -25 113 -25q74 0 190 44q59 23 185 84q94 44 114 44q33 0 33 -39q0 -49 -39 -82q-8 -7 -81 -50q-302 -178 -500 -178q-106 0 -164 58t-58 163
q0 56 15 111q72 261 319 443q244 179 517 179q74 0 74 -42q0 -9 -12 -63q-3 -18 -3 -92z" />
    <glyph glyph-name="d" unicode="d" horiz-adv-x="984" 
d="M46 -56q-40 0 -40 39q0 22 36 177q30 133 87 365q-6 16 -6 35q0 46 36 88q42 49 137 109q84 54 155 85q127 54 238 54q129 0 214.5 -81t85.5 -209q0 -246 -261 -427q-209 -145 -488 -197q-42 -7 -123 -22q-66 -16 -71 -16zM299 605q-81 -249 -108 -479q171 18 305 72
q169 68 248 184q51 75 51 153q0 86 -57.5 137.5t-144.5 51.5q-135 0 -294 -119z" />
    <glyph glyph-name="e" unicode="e" horiz-adv-x="907" 
d="M208 347q-28 -120 -42 -233q100 1 231 26l228 50q28 6 41 6q52 0 52 -38q0 -31 -31 -69.5t-61 -53.5q-105 -53 -266 -81q-140 -25 -277 -25q-95 0 -95 58q0 27 20 124q16 75 49 215q-27 18 -27 52q0 30 19 60.5t46 42.5q19 85 62 246q10 39 17 52q11 23 37 39q15 9 66 24
q147 42 172 48q83 19 179 19q64 0 94.5 -8.5t52.5 -38t22 -60.5q0 -64 -96 -75q-103 -11 -207 -23q-90 -14 -204 -58q-20 -57 -37 -119q254 66 476 66q39 0 55 -4q25 -6 49 -25q32 -26 32 -54q0 -8 -1 -13q-14 -41 -98 -50q-364 -42 -558 -100z" />
    <glyph glyph-name="f" unicode="f" horiz-adv-x="833" 
d="M197 346q-8 -34 -21 -172q-12 -114 -31 -162q-12 -29 -49 -48.5t-71 -19.5q-52 0 -52 44q0 19 22 117q16 74 51 216q-27 17 -27 53q0 31 19 63.5t46 42.5q18 74 49 197q5 27 20 79q14 37 45 56q19 12 67 26q147 42 173 48q83 19 179 19q63 0 94 -8.5t53 -37.5t22 -60
q0 -65 -97 -76l-207 -23q-91 -15 -205 -57q-19 -59 -34 -116q230 62 432 62q66 0 99 -30q29 -25 29 -53q0 -19 -14 -35q-18 -21 -80 -28q-326 -39 -512 -97z" />
    <glyph glyph-name="g" unicode="g" horiz-adv-x="1063" 
d="M252 -59q-109 0 -169 57.5t-60 165.5q0 59 16 119q73 258 319 437q243 177 514 177q74 0 74 -42q0 -9 -10 -58q-4 -22 -4 -88q0 -35 -14 -55.5t-47 -40.5q-46 -27 -74 -27q-32 0 -40 46q-3 20 -2 71q-302 -50 -491 -273q-91 -107 -91 -193q0 -60 48 -89q39 -25 103 -25
q69 0 164 28q62 18 127 45q53 22 117 57q95 52 95 75q0 18 -36 18q-162 0 -447 -62q-33 -7 -46 -7q-43 0 -43 39q0 36 44 80q38 38 77 55q50 22 180 37q107 12 186 12q261 0 261 -106q0 -96 -208 -236q-325 -217 -543 -217z" />
    <glyph glyph-name="h" unicode="h" horiz-adv-x="877" 
d="M801 573q62 -29 62 -74q0 -32 -37 -49q-27 -13 -65 -14q-47 -177 -60 -275q-5 -46 -10 -91q-11 -46 -57 -68q-32 -17 -68 -17q-52 0 -52 43q0 40 16 99l28 98q14 64 43 193q-211 -30 -389 -90q-33 -148 -42 -267q-3 -48 -12 -65q-13 -25 -50.5 -41.5t-66.5 -16.5
q-50 0 -50 46q0 16 9 57q22 95 70 344q42 218 74 342q13 47 22 63q15 26 50.5 45t77.5 19q54 0 54 -42q0 -20 -16 -65q-41 -115 -75 -237q197 56 383 68q16 74 57 220q36 104 151 104q53 0 53 -39q0 -6 -2 -14q-45 -103 -98 -276z" />
    <glyph glyph-name="i" unicode="i" horiz-adv-x="340" 
d="M32 -37q-53 0 -53 44q0 15 12 61q52 224 162 670q14 56 23 72q16 32 53 50.5t81 18.5q55 0 55 -39q0 -24 -23 -81l-34 -82q-119 -325 -148 -591q-5 -49 -13 -66q-13 -25 -51 -42q-33 -15 -64 -15z" />
    <glyph glyph-name="j" unicode="j" horiz-adv-x="929" 
d="M951 810q0 -107 -65 -286q-56 -154 -123 -271q-75 -130 -197 -211q-131 -86 -274 -86q-141 0 -226 98q-82 93 -82 236q0 69 18 127q24 73 101 73q48 0 48 -69q0 -16 -1.5 -46.5t-1.5 -45.5q0 -94 54.5 -149.5t147.5 -55.5q86 0 168.5 50.5t120.5 126.5q34 67 67.5 196.5
t33.5 200.5q0 32 1 26q-2 14 -15 14q-41 0 -119.5 -17.5t-118.5 -17.5q-35 0 -35 38q0 39 29.5 77.5t67.5 52.5q80 32 259 32q73 0 99 -12q43 -19 43 -81z" />
    <glyph glyph-name="k" unicode="k" horiz-adv-x="824" 
d="M274 327q146 -136 304 -212q26 -12 52 -23q33 -19 33 -40q0 -29 -59 -55q-51 -23 -87 -23q-27 0 -225 77q-100 39 -166 95q-9 -83 -12 -95q-14 -50 -57 -72q-32 -16 -68 -16q-51 0 -51 45q0 16 11 61q52 226 163 677q13 51 22 67q16 29 53 48t81 19q54 0 54 -40
q0 -23 -21 -76q-16 -39 -33 -77q-36 -100 -73 -229q329 245 509 363q53 35 103 35q76 0 76 -44q0 -10 -2 -15q-9 -23 -69 -66q-29 -20 -288 -214q-160 -120 -250 -190z" />
    <glyph glyph-name="l" unicode="l" horiz-adv-x="780" 
d="M111 -42q-98 0 -98 58q0 39 47 246q53 232 113 464q14 53 21 70q16 36 46 55q36 22 74 22q51 0 51 -39q0 -19 -20 -72q-120 -323 -153 -618q95 1 194 18q88 20 264 58q25 5 41 5q52 0 52 -39q0 -33 -31 -71q-28 -33 -61 -50q-94 -50 -263 -80q-149 -27 -277 -27z" />
    <glyph glyph-name="m" unicode="m" horiz-adv-x="1195" 
d="M941 -39q-21 0 -36 24q-9 15 -15 258q-3 147 -5 294q-88 -155 -163 -293l-84 -158q-65 -119 -87 -140q-27 -26 -49 -26q-29 0 -47 37q-13 30 -13 63q0 27 9 47q-5 80 -19 435q-66 -115 -272 -465q-39 -64 -43 -70q-33 -47 -60 -47q-32 0 -50 38q-15 30 -15 66q0 32 30 77
q26 34 52 69q89 127 190 311l172 322q36 67 91 67q44 0 44 -85q0 -18 -1.5 -54.5t-1.5 -54.5q0 -162 24 -390q118 193 227 405q29 60 88 178q35 67 90 67q45 0 45 -98q0 -25 -7 -95v1q-2 -148 -2 -203q0 -204 18 -338l10 -60q6 -35 6 -59q0 -38 -44.5 -80.5t-81.5 -42.5z
" />
    <glyph glyph-name="n" unicode="n" horiz-adv-x="909" 
d="M589 -30q-52 0 -52 29q0 4 2 8l-316 512q-85 -265 -108 -443q-5 -43 -10 -87q-11 -39 -59 -59q-34 -15 -64 -15q-50 0 -50 46q0 15 11 57q7 31 15 61q83 373 145 608q18 67 33 89q24 36 80 50q25 6 46 6q39 0 52 -23l306 -517q3 7 80 253l40 152q28 101 64 152
q49 69 122 69q48 0 48 -37q0 -21 -31 -91q-171 -380 -220 -700q-8 -53 -16 -68q-13 -27 -53 -42q-28 -10 -65 -10z" />
    <glyph glyph-name="o" unicode="o" horiz-adv-x="1155" 
d="M396 -68q-156 0 -258 87q-108 92 -108 245q0 168 112 326q105 147 273.5 240.5t333.5 93.5q156 0 259 -87q109 -93 109 -246q0 -167 -113 -325q-105 -148 -274 -241t-334 -93zM904 526q0 109 -65 178t-173 69q-167 0 -302.5 -145t-135.5 -313q0 -109 66 -177.5t175 -68.5
q166 0 302 146q133 143 133 311z" />
    <glyph glyph-name="p" unicode="p" horiz-adv-x="839" 
d="M143 182l-6 -88q-5 -55 -17 -87t-51 -52q-34 -17 -74 -17q-48 0 -48 39q0 24 34 169q31 137 91 372q-6 16 -6 34q0 44 33 87q38 48 122 110q78 57 140 88q134 66 243 66q110 0 185 -60q82 -65 82 -172q0 -213 -270 -352q-194 -100 -458 -137zM507 727q-113 0 -263 -117
q-41 -132 -72 -270q299 13 413 108q99 82 99 155q0 58 -62 94q-53 30 -115 30z" />
    <glyph glyph-name="q" unicode="q" horiz-adv-x="1127" 
d="M865 120q70 -31 70 -65q0 -26 -30 -45.5t-56 -19.5q-27 0 -114 40q-167 -97 -341 -97q-156 0 -257 84q-109 90 -109 244q0 168 112 326q104 149 271.5 243t332.5 94q157 0 260 -86q110 -91 110 -245q0 -132 -73 -262q-66 -116 -176 -211zM669 775q-168 0 -305.5 -145
t-137.5 -314q0 -110 65.5 -178.5t173.5 -68.5q67 0 136 30q-194 118 -194 244q0 38 27 86q30 54 64 54q17 0 36 -24l102 -136q61 -79 116 -124q67 64 107 146q44 89 44 175q0 109 -62 180q-65 75 -172 75z" />
    <glyph glyph-name="r" unicode="r" horiz-adv-x="855" 
d="M328 218q87 -53 159 -79q27 -6 78 -23q31 -15 31 -37q0 -28 -31 -51.5t-60 -23.5q-69 0 -182 36q-101 32 -173 70q0 -35 -11 -103q-10 -30 -45.5 -49t-69.5 -19q-57 0 -57 47q0 26 32 166q23 101 85 349q-35 22 -35 71q0 43 53 92q253 237 486 237q114 0 194 -61
q87 -66 87 -176q0 -173 -191 -301q-143 -95 -350 -145zM524 731q-112 0 -262 -117q-41 -131 -71 -269q292 11 405 106q100 83 100 158q0 58 -60 93q-51 29 -112 29z" />
    <glyph glyph-name="s" unicode="s" horiz-adv-x="1006" 
d="M943 518q34 -14 34 -59q0 -50 -27 -97q-102 -178 -313.5 -300t-416.5 -122q-79 0 -116 27q-41 30 -65 87q-22 52 -22 107q0 42 13 76q18 46 53 46q37 0 57 -46q28 -66 52 -87q52 -47 168 -47q105 0 198 42q101 45 156 127q25 37 25 55q0 7 -14 14q-65 29 -256 41l-274 14
q-86 8 -86 73q0 89 151 219q275 237 586 237q74 0 74 -49q0 -18 -5 -75q-6 -60 -9 -71q-9 -29 -53.5 -56.5t-75.5 -27.5q-45 0 -46 53l-1 35l-15 1q-105 1 -206 -45q-97 -45 -170 -125q5 1 80 2h19q72 0 256 -15q209 -18 249 -34z" />
    <glyph glyph-name="t" unicode="t" horiz-adv-x="830" 
d="M765 796q0 -25 -18 -45q-21 -22 -91 -26q-133 -7 -211 -13q-110 -326 -142 -599q-4 -44 -8 -89q-11 -40 -59 -62q-36 -16 -67 -16q-49 0 -49 41q0 24 41 198q56 241 120 493q-163 -54 -187 -54q-31 0 -49 24q-16 21 -16 54q0 89 84 127q174 78 446 78q206 0 206 -111z
" />
    <glyph glyph-name="u" unicode="u" horiz-adv-x="889" 
d="M564 -36q-51 0 -51 42q0 12 24 111q-92 -42 -254 -94q-184 -59 -256 -59q-66 0 -66 47q0 16 9 52q43 199 138 593q12 49 43 143q37 82 136 82q58 0 58 -40q0 -19 -22 -73q-63 -152 -112 -335q-63 -237 -61 -271v-5l1 2q49 1 212 61q127 46 217 87q50 231 81 347
q9 37 19 73q11 43 24 72q17 37 55.5 59.5t80.5 22.5q59 0 59 -43q0 -23 -23 -80q-17 -41 -34 -81q-104 -281 -137 -525q-6 -50 -12 -99q-13 -51 -61 -74q-31 -15 -68 -15z" />
    <glyph glyph-name="v" unicode="v" horiz-adv-x="636" 
d="M116 -42q-38 0 -56 7q-27 11 -36 42q-5 17 -12 157q-16 316 -16 566q0 86 13 112q21 45 100 45q51 0 51 -73q0 -19 -4 -49q-5 -39 -6 -49q-7 -87 -7 -197q0 -146 16 -285q49 79 148 238l94 154q57 91 102 150q42 55 108 55q26 0 46 -10q24 -13 24 -36q0 -18 -44 -77
l-60 -76q-174 -235 -303 -512q-15 -42 -54 -120q-27 -42 -104 -42z" />
    <glyph glyph-name="w" unicode="w" horiz-adv-x="954" 
d="M520 -32q-34 0 -41.5 48t-7 147t-6.5 147q-9 59 -25 176q-178 -285 -302 -517q-35 -66 -90 -66q-29 0 -37 30q-5 15 -5 54q0 19 2 55.5t2 51.5q2 107 2 194q0 219 -19 356q0 6 -9 52q-6 31 -6 51q0 43 43.5 87t85.5 44q21 0 34 -23.5t14 -134.5q-1 86 -1 -146
q0 -110 7 -273q66 117 244 390q76 117 132 117q44 0 44 -86q0 -38 16 -199q10 -92 16 -188q69 121 285 484q33 56 36 61q29 39 54 39q32 0 51 -37q15 -30 15 -67q0 -32 -41 -90q-103 -144 -213 -338q-56 -99 -191 -352q-35 -67 -89 -67z" />
    <glyph glyph-name="x" unicode="x" horiz-adv-x="788" 
d="M460 411q32 -61 47 -87q28 -48 54 -83q23 -27 61 -83q5 -11 5 -24q0 -38 -38 -86t-75 -48q-32 0 -71 82q-33 65 -99 196q-104 -124 -163 -205q-23 -34 -73 -100q-28 -31 -76 -31q-32 0 -55 15q-27 18 -27 48q0 8 1 12q6 20 325 399q-47 92 -95 183q-68 139 -68 179
q0 42 32.5 87.5t72.5 45.5q23 0 38 -25q12 -20 24 -57q18 -57 18 -60q43 -116 92 -218l134 162q80 94 142 154q39 37 87 37q33 0 60 -18q32 -20 32 -52q0 -20 -17 -42q-1 -1 -69 -67q-139 -136 -299 -314z" />
    <glyph glyph-name="y" unicode="y" horiz-adv-x="800" 
d="M51 -57q-34 0 -58 15q-29 18 -29 50q0 8 1 11q2 10 241 299q-58 113 -115 226q-86 176 -86 215q0 35 37 82t71 47q20 0 37 -27q8 -14 16 -39q6 -21 12 -41q53 -160 140 -328q81 96 248 289q37 44 114 127q38 38 85 38q34 0 63.5 -19t29.5 -52q0 -10 -2 -15
q-7 -21 -76 -88q-353 -345 -566 -632l-68 -98q-48 -60 -95 -60z" />
    <glyph glyph-name="z" unicode="z" horiz-adv-x="944" 
d="M232 118q38 -2 78 -2q99 0 405 28q25 3 38 3q65 0 65 -42q0 -32 -36 -63q-30 -26 -66 -38q-162 -51 -473 -51q-130 0 -187 14q-72 17 -72 81q0 30 28 64q18 22 50 51q26 23 52 47q176 168 531 499h-12q-151 0 -323 -36q-16 -3 -27 -3q-32 0 -51 19.5t-19 51.5
q0 79 86 110q126 45 314 45q112 0 190 -16q134 -28 134 -97q0 -38 -43 -79q-24 -24 -65 -54q-62 -46 -68 -51q-287 -227 -529 -481z" />
    <glyph glyph-name="braceleft" unicode="{" horiz-adv-x="831" 
d="M891 741q0 -31 -46 -73t-77 -42q-12 0 -23 11q-52 52 -105 103q-43 37 -132 75q-24 10 -48 19q-30 16 -30 36q0 33 44 70t78 37q27 0 169 -95q138 -92 162 -121q8 -9 8 -20zM708 478q0 -38 -33.5 -80t-70.5 -42q-8 0 -75 9q-107 14 -168 14q-76 0 -235 -20
q-100 -12 -115 -12q-44 0 -44 43q0 45 37 81.5t82 41.5q22 3 147 7q178 6 306 6q119 0 137 -6q32 -10 32 -42zM298 -151q-27 0 -42 26q-12 21 -12 50q0 51 34.5 80t210.5 137q183 113 203 113q27 0 43 -37q12 -28 12 -60q0 -15 -3 -23q-7 -25 -30 -35.5t-46 -19.5
q-132 -54 -238 -138l-66 -54q-50 -39 -66 -39z" />
    <glyph glyph-name="bar" unicode="|" horiz-adv-x="382" 
d="M8 -168q-49 0 -49 50q0 28 13 74q10 37 21 74q63 266 195 795q16 62 26 83q19 43 53 68q41 30 91 30q52 0 52 -45q0 -22 -35 -115q-156 -420 -217 -782q-4 -51 -24 -148q-12 -34 -50.5 -59t-75.5 -25z" />
    <glyph glyph-name="braceright" unicode="}" horiz-adv-x="894" 
d="M177 569q-26 0 -41 33q-13 27 -13 56q0 46 27 65q5 3 51 22q77 32 129 61q43 24 111 81q74 60 110 83q12 7 22 7q27 0 42 -31q12 -25 12 -56q0 -41 -34 -70q-40 -32 -212 -139q-181 -112 -204 -112zM349 298q-133 0 -153 6q-34 10 -34 44q0 37 33.5 79t70.5 42
q11 0 75 -9q110 -15 167 -15q86 0 235 18q108 14 116 14q45 0 45 -43q0 -46 -35.5 -80.5t-82.5 -41.5q-29 -4 -155 -9q-153 -5 -282 -5zM441 -45q0 -31 -46 -69t-78 -38q-26 0 -168 95q-139 92 -162 121q-7 10 -7 21q0 31 45.5 72t77.5 41q12 0 24 -10q33 -39 105 -110
q34 -28 154 -79q15 -5 39 -17q16 -12 16 -27z" />
    <glyph glyph-name="asciitilde" unicode="~" horiz-adv-x="797" 
d="M513 325q-49 0 -133.5 42t-112.5 42q-29 0 -84 -41.5t-67 -41.5q-42 0 -42 60q0 70 34 107q72 79 149 79q45 0 127.5 -41t129.5 -41q36 0 102.5 49t69.5 49q42 0 42 -77q0 -26 -5 -44q-13 -46 -87 -94t-123 -48z" />
    <glyph glyph-name="dieresis" unicode="&#xa8;" 
 />
    <glyph glyph-name="copyright" unicode="&#xa9;" horiz-adv-x="1114" 
d="M1104 615q0 -158 -122 -331q-115 -162 -288 -271q-179 -112 -337 -112q-143 0 -236 86q-96 89 -96 232q0 159 122 332q115 164 287 273q179 113 337 113q144 0 238.5 -89t94.5 -233zM905 547q0 98 -49 163q-54 71 -148 71q-84 0 -187 -52q-136 -69 -219 -185
q-89 -125 -89 -271q0 -97 48 -161q53 -71 147 -71q84 0 187 54q137 70 220 184q90 124 90 268zM734 465q-24 0 -50 30t-52 30q-51 0 -126 -63t-75 -113q0 -62 97 -62q48 0 119 44t112 44q29 0 29 -23q0 -11 -7 -24q-41 -71 -168 -128q-119 -53 -209 -53q-61 0 -100 27
q-44 31 -44 89q0 105 178 287q126 130 244 130q61 0 102 -50q46 -56 46 -92q0 -30 -34 -53q-30 -20 -62 -20z" />
    <glyph glyph-name="registered" unicode="&#xae;" horiz-adv-x="1113" 
d="M1103 616q0 -159 -122 -332q-115 -162 -288 -271q-179 -112 -337 -112q-143 0 -236 87q-96 89 -96 232q0 158 122 332q115 163 287 272q179 113 337 113q144 0 238.5 -88.5t94.5 -232.5zM904 548q0 97 -50 162q-54 71 -148 71q-91 0 -204 -63q-104 -59 -169 -135
q-122 -144 -122 -306q0 -98 48 -163q54 -73 148 -73q83 0 187 54q136 70 219 184q91 125 91 269zM562 296l104 -65q34 -21 34 -46q0 -38 -47 -38q-20 0 -39 8l-200 82q-5 -65 -14 -84q-18 -39 -71 -39q-41 0 -41 33q0 60 24 152q21 75 42 149q-9 -5 -18 -5q-18 0 -29 20
q-10 17 -10 37q0 31 67 87q136 116 255 116q85 0 143 -36q68 -43 68 -123q0 -172 -268 -248zM488 550q-30 -90 -50 -178q91 6 164 33q109 39 109 108q0 36 -34 57q-28 17 -67 17q-57 0 -122 -37z" />
    <glyph glyph-name="Ograve" unicode="&#xd2;" 
 />
    <glyph glyph-name="Oacute" unicode="&#xd3;" 
 />
    <glyph glyph-name="Ocircumflex" unicode="&#xd4;" 
 />
    <glyph glyph-name="Otilde" unicode="&#xd5;" 
 />
    <glyph glyph-name="quoteleft" unicode="&#x2018;" horiz-adv-x="254" 
d="M251 641q0 -35 -27 -57.5t-63 -22.5q-39 0 -56 41q-14 34 -40.5 150.5t-26.5 148.5q0 30 41 53q35 20 67 20q55 0 65 -48q3 -28 10 -84q2 -10 18 -104q12 -72 12 -97z" />
    <glyph glyph-name="quoteright" unicode="&#x2019;" horiz-adv-x="325" 
d="M53 561q-26 0 -46.5 14.5t-20.5 40.5q0 25 35 71q27 37 83 124q52 81 83.5 121.5t82.5 40.5q30 0 52 -15q26 -17 26 -46q0 -7 -1 -13q-5 -18 -105 -149q-94 -122 -124 -154q-32 -35 -65 -35z" />
    <glyph glyph-name="quotedblleft" unicode="&#x201c;" horiz-adv-x="452" 
d="M456 648q0 -34 -27 -57t-62 -23q-39 0 -57 42q-14 35 -41 150t-27 149q0 30 40 53q35 20 68 20q56 0 66 -49q3 -28 10 -84q1 -10 17 -104q13 -72 13 -97zM236 580q0 -33 -27 -55.5t-62 -22.5q-39 0 -56 41q-14 33 -40.5 150t-26.5 149q0 30 40 53q35 20 68 20
q55 0 64 -49q4 -28 11 -85q1 -9 17 -103q12 -72 12 -98z" />
    <glyph glyph-name="quotedblright" unicode="&#x201d;" horiz-adv-x="491" 
d="M230 502q-26 0 -47 14.5t-21 40.5q0 23 36 70q29 38 83 124q52 82 83.5 122.5t82.5 40.5q31 0 53 -15q26 -17 26 -46q0 -7 -2 -13q-5 -20 -105 -149q-92 -120 -124 -154.5t-65 -34.5zM46 568q-26 0 -46 14.5t-20 39.5q0 26 35 72q27 37 83 124q51 82 83.5 122.5
t83.5 40.5q30 0 53.5 -16t23.5 -45q0 -7 -1 -13q-5 -18 -105 -149q-94 -122 -123 -154q-34 -36 -67 -36z" />
    <glyph glyph-name="ellipsis" unicode="&#x2026;" horiz-adv-x="984" 
d="M710 -12q-57 0 -57 42q0 40 49 158q17 41 95 41q74 0 74 -38q0 -14 -34 -84q-32 -65 -45 -84q-25 -35 -82 -35zM441 -14q-57 0 -57 43q0 40 49 158q17 41 96 41q73 0 73 -38q0 -14 -34 -84q-32 -65 -45 -84q-24 -36 -82 -36zM172 -15q-57 0 -57 43q0 40 49 157
q18 42 96 42q73 0 73 -38q0 -14 -34 -84q-31 -65 -44 -84q-25 -36 -83 -36z" />
    <glyph glyph-name="trademark" unicode="&#x2122;" horiz-adv-x="1006" 
d="M961 480q0 -27 -29 -52.5t-56 -25.5q-18 0 -28 19q-6 13 -11 123l-4 138q-73 -133 -100 -176q-84 -136 -118 -136q-39 0 -58 121q-7 45 -14 157q-61 -97 -126 -191q-17 -28 -54 -77q-18 -18 -34 -18q-22 0 -36 26q-13 22 -13 46q0 11 2.5 18t44.5 64q116 153 215 333
q23 42 60 42q29 0 34 -35q0 -30 3 -88q4 -69 24 -182q22 35 181 322q22 40 59 40q35 0 35 -71q0 -20 -1 -60.5t-1 -60.5q0 -51 3 -90q2 -23 13 -93q9 -58 9 -93zM453 857q0 -31 -63 -43q-13 -2 -87 -8q-62 -177 -82 -343q0 -22 -8 -65q-8 -22 -31 -35.5t-47 -13.5
q-37 0 -37 31q0 49 37 196q27 103 54 205l-81 -23q-48 0 -48 41q0 72 108 105q72 21 167 21q66 0 96 -30q22 -21 22 -38z" />
    <glyph glyph-name="glyph109" 
 />
    <glyph glyph-name="glyph110" 
 />
    <glyph glyph-name="glyph109" 
 />
  </font>
</defs>
</svg>
